<?xml version="1.0" encoding="UTF-8"?> <svg xmlns="http://www.w3.org/2000/svg" viewBox="0 0 320.2 81.84"><defs><style>.a,.b{fill:#fff;}.b{stroke:#0073ae;stroke-miterlimit:10;}.c{fill:#0073ae;}</style></defs><title>whalen-logo-wh</title><path class="a" d="M93.22,28.75c-.55-1.69-1.06-2.8-1.7-3.26a4.21,4.21,0,0,0-1.83-.41c-.46,0-.74,0-.74-.41s.37-.41,1-.41c2.38,0,4.91.14,5.32.14s2.43-.14,5.09-.14c.64,0,1,.13,1,.41s-.36.41-.82.41a2.35,2.35,0,0,0-1.15.19c-.41.18-.5.5-.5,1a30.23,30.23,0,0,0,1,4.21c.78,3,5,16.93,5.87,19.49h.13l8.9-23.89c.51-1.28.78-1.65,1.15-1.65s.73.69,1.33,2.16l9.54,23.07h.14c.82-3.08,4.49-15.19,6.1-20.55a9.76,9.76,0,0,0,.45-2.66c0-.74-.41-1.38-2.2-1.38-.46,0-.78-.13-.78-.41s.37-.41,1.06-.41c2.43,0,4.36.14,4.77.14s2.29-.14,3.8-.14c.51,0,.83.09.83.36s-.23.46-.64.46a5.18,5.18,0,0,0-1.61.23c-1.1.41-1.6,2.25-2.57,4.86C134,36,129.22,50.54,127,57.42c-.5,1.6-.73,2.15-1.33,2.15s-.73-.55-1.42-2.25l-9.54-23h-.09c-.87,2.33-7,18.57-8.94,22.79-.88,1.88-1.11,2.43-1.66,2.43s-.68-.5-1-1.69Z"></path><path class="a" d="M169.67,38.84a.28.28,0,0,0,.28-.32v-1c0-7,0-8.26-.1-9.73s-.45-2.29-2-2.61a9.45,9.45,0,0,0-1.79-.14c-.5,0-.78-.09-.78-.41s.32-.41,1-.41c2.47,0,5.36.14,6.6.14s4-.14,5.78-.14c.64,0,1,.09,1,.41s-.27.41-.82.41a8.36,8.36,0,0,0-1.33.14c-1.24.23-1.61,1-1.7,2.61s-.09,2.76-.09,9.73v8.07c0,4.22,0,7.84.23,9.81.14,1.29.41,2.3,1.79,2.48a19.61,19.61,0,0,0,2.34.19c.5,0,.73.13.73.36s-.37.46-.92.46c-3,0-5.87-.14-7.15-.14-1.06,0-3.95.14-5.74.14-.64,0-1-.14-1-.46s.19-.36.74-.36a7.64,7.64,0,0,0,1.65-.19c.91-.18,1.14-1.19,1.33-2.52.23-1.93.23-5.55.23-9.77v-4a.26.26,0,0,0-.28-.27H152.15c-.14,0-.27,0-.27.27v4c0,4.22,0,7.84.23,9.81.13,1.29.41,2.3,1.78,2.48a19.61,19.61,0,0,0,2.34.19c.51,0,.74.13.74.36s-.37.46-.92.46c-3,0-5.87-.14-7.16-.14-1,0-3.94.14-5.77.14-.6,0-.92-.14-.92-.46s.18-.36.73-.36a7.48,7.48,0,0,0,1.65-.19c.92-.18,1.15-1.19,1.33-2.52.23-1.93.23-5.55.23-9.77V37.56c0-7,0-8.26-.09-9.73s-.46-2.29-2-2.61a9.61,9.61,0,0,0-1.79-.14c-.51,0-.78-.09-.78-.41s.32-.41,1-.41c2.48,0,5.37.14,6.61.14s4-.14,5.78-.14c.64,0,1,.09,1,.41s-.28.41-.83.41a8.59,8.59,0,0,0-1.33.14c-1.23.23-1.6,1-1.69,2.61s-.09,2.76-.09,9.73v1c0,.23.13.32.27.32Z"></path><path class="a" d="M191.64,47c-.23,0-.32.09-.41.37l-2.48,6.56a8.8,8.8,0,0,0-.69,2.79c0,.83.41,1.42,1.84,1.42h.69c.55,0,.68.1.68.37s-.27.46-.78.46c-1.47,0-3.44-.14-4.86-.14-.5,0-3,.14-5.41.14-.6,0-.87-.09-.87-.46s.18-.37.55-.37a12.88,12.88,0,0,0,1.42-.09c2.11-.27,3-1.83,3.9-4.12l11.51-28.81c.55-1.33.83-1.83,1.28-1.83s.69.41,1.15,1.47c1.1,2.52,8.44,21.23,11.37,28.2,1.75,4.13,3.08,4.77,4,5a9.9,9.9,0,0,0,1.93.18c.36,0,.6,0,.6.37s-.42.46-2.12.46-5,0-8.66-.09c-.83-.05-1.38-.05-1.38-.37s.18-.37.64-.41A.76.76,0,0,0,206,57l-3.68-9.72a.43.43,0,0,0-.45-.32ZM201,44.67c.22,0,.27-.14.22-.28L197.1,33.06c0-.18-.09-.41-.23-.41s-.23.23-.28.41l-4.22,11.28c0,.19,0,.33.19.33Z"></path><path class="a" d="M226.73,45.63c0,5.87,0,9,1,9.86.78.69,2,1,5.55,1,2.43,0,4.22,0,5.36-1.28a5.7,5.7,0,0,0,1.2-2.76c0-.41.13-.69.5-.69s.37.23.37.79a35.84,35.84,0,0,1-.69,5.27c-.27,1-.5,1.24-2.89,1.24-6.6,0-9.63-.28-13.35-.28-1.05,0-3.94.14-5.77.14-.6,0-.92-.14-.92-.46s.18-.36.73-.36a7.48,7.48,0,0,0,1.65-.19c.92-.18,1.15-1.19,1.33-2.52.23-1.93.23-5.55.23-9.77V37.56c0-7,0-8.26-.09-9.73s-.46-2.29-2-2.61a6.92,6.92,0,0,0-1.51-.14c-.51,0-.79-.09-.79-.41s.33-.41,1-.41c2.16,0,5.05.14,6.29.14s4.45-.14,6.24-.14c.64,0,1,.09,1,.41s-.28.41-.83.41a12.53,12.53,0,0,0-1.79.14c-1.24.23-1.6,1-1.69,2.61s-.09,2.76-.09,9.73Z"></path><path class="a" d="M247.82,37.56c0-7,0-8.26-.09-9.73s-.46-2.29-2-2.61a9.61,9.61,0,0,0-1.79-.14c-.5,0-.78-.09-.78-.41s.32-.41,1-.41c2.43,0,5.32.13,6.6.13,1.47,0,10.6,0,11.47,0s1.61-.19,2-.27a4,4,0,0,1,.74-.19c.22,0,.27.19.27.41a30,30,0,0,0-.37,3c0,.45-.13,2.47-.23,3,0,.23-.13.51-.45.51s-.42-.23-.42-.65a4.88,4.88,0,0,0-.27-1.65c-.32-.82-.78-1.37-3.07-1.65-.79-.09-5.6-.18-6.52-.18-.23,0-.32.14-.32.46v11.6c0,.32.05.5.32.5,1,0,6.28,0,7.34-.09a3.23,3.23,0,0,0,2.2-.68c.32-.37.51-.6.74-.6s.32.09.32.37a33.35,33.35,0,0,0-.37,3.34c-.09.92-.18,2.75-.18,3.08s0,.87-.42.87a.36.36,0,0,1-.41-.41,14.37,14.37,0,0,0-.18-1.66c-.23-.91-.87-1.6-2.57-1.78-.87-.1-5.41-.14-6.51-.14-.23,0-.28.18-.28.46v3.62c0,1.56,0,5.78,0,7.11.09,3.16.83,3.85,5.5,3.85a11.69,11.69,0,0,0,4.32-.55c1.19-.55,1.74-1.51,2.06-3.39.09-.51.18-.69.51-.69s.36.36.36.83a36,36,0,0,1-.59,5.09c-.32,1.19-.74,1.19-2.48,1.19-6.93,0-10-.28-12.7-.28-1.06,0-4,.14-5.79.14-.59,0-.91-.14-.91-.46s.18-.36.73-.36a7.48,7.48,0,0,0,1.65-.19c.92-.18,1.15-1.19,1.33-2.52.23-1.93.23-5.55.23-9.77Z"></path><path class="a" d="M278.46,52.69c.09,3.58.69,4.77,1.6,5.09a7.25,7.25,0,0,0,2.39.33c.5,0,.78.09.78.36s-.41.46-1.06.46c-3,0-4.81-.14-5.68-.14-.42,0-2.57.14-5,.14-.59,0-1,0-1-.46s.28-.36.74-.36a8.29,8.29,0,0,0,2.06-.23c1.2-.37,1.38-1.7,1.43-5.69L275.16,25c0-.92.14-1.56.59-1.56s.92.59,1.7,1.42c.55.59,7.52,8.07,14.22,14.72,3.12,3.12,9.31,9.73,10.09,10.46H302l-.46-20.59c0-2.8-.46-3.67-1.56-4.13a7.37,7.37,0,0,0-2.43-.28c-.55,0-.73-.13-.73-.41s.5-.41,1.19-.41c2.38,0,4.58.14,5.55.14.5,0,2.24-.14,4.49-.14.6,0,1.06,0,1.06.41s-.28.41-.83.41a4.93,4.93,0,0,0-1.38.14c-1.28.37-1.65,1.33-1.69,3.9l-.51,28.94c0,1-.18,1.42-.59,1.42s-1.06-.5-1.56-1C299.65,55.72,293.78,49.71,289,45c-5-5-10.09-10.69-10.92-11.56H278Z"></path><path class="a" d="M40.94,4.21a36.71,36.71,0,1,0,36.69,36.7A36.76,36.76,0,0,0,40.94,4.21"></path><path class="a" d="M40.94,0A40.92,40.92,0,1,0,81.85,40.91,40.92,40.92,0,0,0,40.94,0"></path><path class="b" d="M40.94,79.48A38.56,38.56,0,1,1,79.48,40.91,38.62,38.62,0,0,1,40.94,79.48"></path><path class="c" d="M64.4,27.85c0,.2-.12.31-.36.31a4.62,4.62,0,0,0-1.37.22c-1.2.43-1.86,2.12-2.62,4.33-1.76,5.11-5.82,17.9-7.39,22.4-1,3-1.25,3.46-1.69,3.46s-.64-.52-1.21-2.09L41.88,34.12H41.8C40.35,38,34.85,52.7,33.4,56.44c-.64,1.69-.85,2.13-1.33,2.13s-.6-.44-1.41-3.18L23.5,31.55c-.64-2.14-1.15-2.74-2.2-3.14a6.4,6.4,0,0,0-1.81-.25c-.2,0-.38,0-.38-.27s.26-.29.65-.29c2.1,0,4.32.13,4.74.13s2.15-.13,4.15-.13c.57,0,.73.13.73.29s-.21.27-.41.27a3.77,3.77,0,0,0-1.56.25,1.06,1.06,0,0,0-.54,1,34.46,34.46,0,0,0,.77,3.7c.61,2.57,4.8,17.32,5.4,19.45h.08l8.51-22.91c.61-1.64.78-1.86,1-1.86s.54.53,1,1.9l8,22.8h.15C52.9,48.75,56.6,37.1,58,32a8.47,8.47,0,0,0,.43-2.57c0-.73-.43-1.22-2.29-1.22-.2,0-.36-.11-.36-.27s.2-.29.69-.29c2,0,3.74.13,4.1.13s2-.13,3.25-.13c.37,0,.57.09.57.25"></path><path class="a" d="M315.52,24.73a4.68,4.68,0,1,1-4.72,4.65,4.64,4.64,0,0,1,4.72-4.65m0,8.66a4,4,0,1,0-3.87-4,3.85,3.85,0,0,0,3.87,4m-1.83-6.73h2.11c1.3,0,1.92.52,1.92,1.57a1.4,1.4,0,0,1-1.44,1.48l1.56,2.42h-.91l-1.49-2.35h-.9v2.35h-.85Zm.85,2.43h.89c.75,0,1.44,0,1.44-.9s-.63-.84-1.2-.84h-1.13Z"></path></svg> 